<svg width="33" height="32" viewBox="0 0 33 32" fill="none" xmlns="http://www.w3.org/2000/svg">
<path d="M16.2546 32C25.0108 32 32.1091 24.8366 32.1091 16C32.1091 7.16344 25.0108 0 16.2546 0C7.49835 0 0.400024 7.16344 0.400024 16C0.400024 24.8366 7.49835 32 16.2546 32Z" fill="black"/>
<path fill-rule="evenodd" clip-rule="evenodd" d="M16.2546 7.88837C18.4373 7.88837 18.7116 7.8973 19.5685 7.93748C20.2354 7.95036 20.8952 8.0777 21.5197 8.31404C22.0535 8.52286 22.5382 8.8417 22.943 9.25019C23.3478 9.65869 23.6637 10.1479 23.8706 10.6865C24.1043 11.3153 24.2305 11.9797 24.2438 12.6512C24.2836 13.5159 24.2924 13.7927 24.2924 15.9955C24.2924 18.1983 24.2836 18.4752 24.2438 19.3399C24.231 20.0129 24.1048 20.6788 23.8706 21.309C23.6637 21.8477 23.3478 22.3368 22.943 22.7453C22.5382 23.1538 22.0535 23.4727 21.5197 23.6815C20.8969 23.9189 20.2386 24.0477 19.5729 24.0625C18.7161 24.1027 18.4417 24.1116 16.259 24.1116C14.0762 24.1116 13.8019 24.1027 12.945 24.0625C12.2781 24.0496 11.6183 23.9223 10.9938 23.6859C10.4601 23.4771 9.97532 23.1583 9.57054 22.7498C9.16576 22.3413 8.84983 21.8521 8.64291 21.3135C8.40769 20.6849 8.28002 20.0206 8.26534 19.3488C8.22552 18.4841 8.21667 18.2073 8.21667 16.0045C8.21667 13.8017 8.22552 13.5248 8.26534 12.6601C8.2781 11.9871 8.40428 11.3212 8.63848 10.691C8.84488 10.1515 9.16059 9.66146 9.5654 9.25217C9.9702 8.84288 10.4552 8.52335 10.9894 8.31404C11.6125 8.07819 12.2708 7.95086 12.9362 7.93748C13.7975 7.8973 14.0718 7.88837 16.2546 7.88837ZM19.4992 9.39758C18.6526 9.35888 18.3975 9.34995 16.2546 9.34995C14.1116 9.34995 13.8535 9.35888 13.0099 9.39758C12.4994 9.40285 11.9936 9.49649 11.5144 9.67441C11.1672 9.80952 10.8518 10.0165 10.5886 10.2821C10.3255 10.5477 10.1204 10.8659 9.98648 11.2164C9.81 11.6989 9.71672 12.2083 9.71069 12.7226C9.67234 13.5769 9.66349 13.8344 9.66349 15.997C9.66349 18.1596 9.67234 18.4201 9.71069 19.2714C9.71605 19.7877 9.80934 20.2992 9.98648 20.7836C10.1204 21.1341 10.3255 21.4523 10.5886 21.7179C10.8518 21.9835 11.1672 22.1905 11.5144 22.3256C11.9925 22.5037 12.4973 22.5978 13.007 22.6039C13.8535 22.6426 14.1087 22.6515 16.2516 22.6515C18.3945 22.6515 18.6526 22.6426 19.4963 22.6039C20.0079 22.5985 20.5147 22.5043 20.9947 22.3256C21.3419 22.1905 21.6573 21.9835 21.9205 21.7179C22.1836 21.4523 22.3887 21.1341 22.5226 20.7836C22.6991 20.3011 22.7924 19.7917 22.7984 19.2774C22.8368 18.4231 22.8456 18.1656 22.8456 16.003C22.8456 13.8404 22.8368 13.5799 22.7984 12.7286C22.7931 12.2123 22.6998 11.7007 22.5226 11.2164C22.3887 10.8659 22.1836 10.5477 21.9205 10.2821C21.6573 10.0165 21.3419 9.80952 20.9947 9.67441C20.5165 9.49682 20.0117 9.40319 19.5022 9.39758H19.4992ZM16.2546 18.7044C16.7846 18.7044 17.3027 18.5458 17.7434 18.2486C18.184 17.9514 18.5275 17.5291 18.7304 17.0349C18.9332 16.5408 18.9862 15.997 18.8828 15.4724C18.7794 14.9478 18.5242 14.4659 18.1495 14.0877C17.7747 13.7095 17.2972 13.4519 16.7774 13.3476C16.2575 13.2432 15.7187 13.2968 15.229 13.5015C14.7394 13.7062 14.3209 14.0528 14.0264 14.4975C13.7319 14.9423 13.5748 15.4651 13.5748 16C13.5752 16.7171 13.8576 17.4048 14.3601 17.9118C14.8626 18.4189 15.544 18.704 16.2546 18.7044ZM16.2546 11.834C17.0713 11.834 17.8697 12.0785 18.5488 12.5364C19.2279 12.9943 19.7572 13.6452 20.0698 14.4067C20.3823 15.1682 20.4641 16.0061 20.3048 16.8145C20.1454 17.6229 19.7521 18.3655 19.1746 18.9483C18.5971 19.5311 17.8612 19.928 17.0602 20.0888C16.2591 20.2497 15.4288 20.1671 14.6742 19.8517C13.9197 19.5363 13.2747 19.0021 12.821 18.3168C12.3672 17.6315 12.125 16.8257 12.125 16.0015C12.125 14.8962 12.5601 13.8362 13.3345 13.0547C14.109 12.2731 15.1593 11.834 16.2546 11.834ZM21.5094 11.6703C21.5094 11.8628 21.4528 12.051 21.3469 12.2111C21.2409 12.3712 21.0902 12.4959 20.914 12.5696C20.7377 12.6433 20.5438 12.6626 20.3567 12.625C20.1696 12.5875 19.9977 12.4947 19.8628 12.3586C19.7279 12.2225 19.6361 12.049 19.5989 11.8602C19.5616 11.6714 19.5807 11.4757 19.6537 11.2978C19.7267 11.12 19.8504 10.9679 20.009 10.861C20.1676 10.754 20.3541 10.6969 20.5449 10.6969C20.8007 10.6969 21.046 10.7995 21.2269 10.982C21.4078 11.1646 21.5094 11.4122 21.5094 11.6703Z" fill="white"/>
</svg>
