<svg width="32" height="32" viewBox="0 0 32 32" fill="none" xmlns="http://www.w3.org/2000/svg">
<g clip-path="url(#clip0_13_90)">
<path d="M16 32C24.8366 32 32 24.8366 32 16C32 7.16344 24.8366 0 16 0C7.16344 0 0 7.16344 0 16C0 24.8366 7.16344 32 16 32Z" fill="black"/>
<path d="M16.5864 21.8999C10.3829 21.8999 6.84653 17.6461 6.69769 10.5674H9.80393C9.90662 15.7619 12.1972 17.9632 14.0116 18.4171V10.5674H16.9392V15.0474C18.7252 14.8554 20.614 12.8149 21.248 10.5674H24.1756C23.6875 13.3343 21.6454 15.3764 20.1943 16.2158C21.3292 16.7794 22.3317 17.5776 23.1353 18.5574C23.9388 19.5373 24.5253 20.6765 24.8558 21.8999H21.635C20.9429 19.7447 19.2179 18.0778 16.9392 17.8515V21.8999H16.5864Z" fill="white"/>
</g>
<defs>
<clipPath id="clip0_13_90">
<rect width="32" height="32" fill="white"/>
</clipPath>
</defs>
</svg>
